<svg xmlns="http://www.w3.org/2000/svg" xmlns:xlink="http://www.w3.org/1999/xlink" width="500" zoomAndPan="magnify" viewBox="0 0 375 374.999991" height="500" preserveAspectRatio="xMidYMid meet" version="1.0"><defs><g/><clipPath id="f68794328e"><path d="M 89.554688 97.277344 L 258 97.277344 L 258 159 L 89.554688 159 Z M 89.554688 97.277344 " clip-rule="nonzero"/></clipPath></defs><g clip-path="url(#f68794328e)"><path fill="#ffffff" d="M 254.582031 131.992188 C 250.386719 133.296875 246.070312 134.273438 241.675781 134.394531 C 243.222656 132.523438 245.136719 131.015625 246.804688 129.222656 C 250.429688 125.640625 253.402344 121.242188 254.621094 116.234375 C 255.03125 114.730469 253.035156 113.792969 252.097656 114.972656 C 249.003906 118.800781 245.136719 122.058594 240.617188 124.054688 C 238.335938 125.152344 235.894531 125.4375 233.410156 125.84375 C 233.285156 125.886719 231.941406 126.089844 230.152344 126.414062 C 231.535156 125.273438 232.921875 124.054688 233.652344 122.382812 C 233.777344 122.019531 233.855469 121.609375 233.777344 121.203125 C 233.816406 121.609375 233.695312 121.976562 233.492188 122.300781 C 232.148438 124.460938 229.746094 125.722656 227.546875 126.863281 C 224.003906 127.472656 220.09375 128.164062 219.769531 128.246094 C 215.902344 128.898438 212.03125 129.671875 208.125 130.121094 C 208.410156 126.539062 208.695312 122.832031 208.980469 119.859375 C 209.265625 114.769531 210.402344 109.882812 210.648438 104.753906 C 210.769531 101.253906 207.960938 97.914062 204.460938 97.507812 C 202.871094 97.300781 195.175781 97.710938 193.464844 97.710938 C 177.953125 98.117188 161.585938 98.726562 146.070312 99.339844 C 145.417969 99.378906 143.464844 99.460938 142.855469 99.5 C 138.253906 99.625 134.222656 103.492188 133.976562 108.09375 C 133.898438 109.234375 134.140625 110.535156 134.261719 111.675781 C 134.261719 111.675781 134.832031 115.910156 134.832031 115.910156 C 135.402344 120.183594 135.933594 124.5 136.542969 128.816406 C 136.542969 128.816406 136.867188 130.933594 136.867188 130.933594 C 136.910156 131.058594 136.910156 131.21875 136.910156 131.34375 C 135.566406 131.300781 134.101562 131.179688 132.632812 131.097656 C 130.273438 131.015625 126.40625 130.8125 122.578125 130.609375 C 121.761719 130.203125 121.03125 129.632812 120.417969 129.019531 C 119.523438 128.085938 118.953125 126.902344 118.996094 125.558594 C 118.546875 127.390625 119.28125 129.101562 120.460938 130.488281 C 117.855469 130.363281 115.453125 130.203125 113.78125 130.121094 C 111.707031 130 109.628906 129.875 107.59375 129.550781 C 101.40625 128.613281 96.03125 125.195312 91.714844 120.753906 C 91.550781 120.550781 91.265625 120.511719 91.023438 120.59375 C 90.65625 120.714844 90.492188 121.082031 90.613281 121.449219 C 92.121094 125.683594 94.808594 129.507812 98.269531 132.359375 C 100.753906 134.476562 103.644531 136.1875 106.167969 138.222656 C 106.78125 138.710938 107.308594 139.28125 107.714844 139.890625 C 106.820312 140.136719 105.597656 140.015625 104.742188 140.054688 C 103.074219 140.097656 101.363281 140.054688 99.695312 139.933594 C 96.679688 139.6875 93.710938 139.160156 90.777344 138.46875 C 90.371094 138.386719 89.964844 138.546875 89.757812 138.957031 C 89.554688 139.402344 89.71875 139.933594 90.167969 140.136719 C 97.535156 143.558594 105.152344 146.488281 112.925781 148.972656 C 108.855469 149.625 101.851562 150.558594 100.386719 149.421875 C 100.386719 149.421875 105.679688 154.671875 121.03125 151.375 C 122.863281 151.863281 124.734375 152.351562 126.566406 152.800781 C 126.121094 152.882812 125.671875 152.960938 125.222656 153.042969 C 123.027344 153.53125 120.90625 154.144531 118.953125 155.285156 C 121.234375 155.488281 123.390625 155.160156 125.589844 154.714844 C 126.976562 154.386719 128.359375 154.019531 129.664062 153.53125 C 131.414062 153.941406 133.164062 154.304688 134.957031 154.632812 C 134.75 154.957031 134.546875 155.324219 134.304688 155.648438 C 133.613281 156.585938 132.960938 157.644531 131.859375 158.09375 C 133.082031 157.972656 134.101562 157.074219 135.078125 156.34375 C 135.648438 155.894531 136.136719 155.40625 136.664062 154.917969 C 166.226562 160.371094 197.046875 159.03125 225.671875 150.070312 C 226.121094 150.804688 226.648438 151.496094 227.300781 152.109375 C 228.480469 153.246094 230.070312 153.980469 231.738281 153.898438 C 230.925781 153.816406 230.191406 153.613281 229.5 153.207031 C 228.195312 152.433594 227.261719 151.171875 226.609375 149.785156 C 228.5625 149.175781 230.476562 148.523438 232.390625 147.832031 C 233.410156 148.523438 234.46875 149.09375 235.566406 149.664062 C 237.5625 150.640625 239.636719 151.457031 241.878906 151.863281 C 240.207031 150.316406 238.335938 149.175781 236.339844 148.15625 C 235.648438 147.832031 234.914062 147.464844 234.183594 147.179688 C 235.242188 146.773438 236.300781 146.40625 237.316406 145.960938 C 237.644531 145.835938 237.96875 145.714844 238.296875 145.59375 C 248.109375 148.929688 253.238281 142.988281 253.238281 142.988281 C 251.488281 144.535156 245.949219 144.371094 241.835938 144.046875 C 242.773438 143.636719 243.710938 143.273438 244.648438 142.988281 C 247.335938 142.089844 249.941406 140.746094 252.300781 139.117188 C 253.890625 138.019531 255.355469 136.757812 256.699219 135.332031 C 258.082031 133.824219 256.496094 131.382812 254.582031 131.992188 Z M 140.003906 130.445312 C 139.433594 125.480469 138.988281 120.46875 138.417969 115.460938 L 137.929688 111.144531 C 137.929688 111.144531 137.804688 110.046875 137.804688 110.046875 C 137.601562 108.664062 137.683594 107.195312 138.417969 105.976562 C 139.351562 104.304688 141.144531 103.246094 143.015625 103.164062 C 143.546875 103.125 145.785156 103.085938 146.234375 103.042969 C 161.746094 102.3125 178.117188 101.535156 193.585938 100.640625 L 202.179688 100.152344 C 202.179688 100.152344 203.238281 100.070312 203.238281 100.070312 C 205.882812 99.828125 208.285156 102.066406 208.328125 104.714844 C 208.246094 109.679688 207.390625 114.6875 207.390625 119.695312 C 207.308594 122.710938 207.1875 126.660156 207.148438 130.40625 C 170.582031 136.960938 146.398438 133.988281 140.289062 133.011719 Z M 243.222656 138.914062 C 241.0625 139.566406 238.988281 140.585938 236.910156 141.398438 C 229.949219 144.128906 222.78125 146.40625 215.535156 148.28125 C 177.382812 158.050781 135.035156 155.203125 98.023438 141.398438 C 100.265625 141.601562 102.503906 141.644531 104.742188 141.519531 C 106.167969 141.441406 107.714844 141.683594 109.019531 140.828125 C 109.304688 140.667969 109.386719 140.300781 109.261719 140.015625 C 108.773438 138.875 107.917969 138.019531 107.023438 137.246094 C 104.457031 135.167969 101.566406 133.539062 99.082031 131.421875 C 96.640625 129.429688 94.644531 126.863281 93.179688 124.054688 C 93.953125 124.746094 94.726562 125.398438 95.542969 126.007812 C 98.960938 128.574219 103.035156 130.488281 107.269531 131.21875 C 113.578125 132.238281 119.847656 132.523438 126.203125 133.253906 C 128.320312 133.460938 130.394531 133.621094 132.511719 133.785156 C 134.261719 133.90625 136.09375 134.234375 138.050781 134.273438 C 138.417969 136.714844 139.109375 139.039062 140.167969 140.667969 C 140.085938 139.199219 140.003906 137.773438 139.921875 136.308594 C 173.960938 146.121094 204.378906 134.84375 207.226562 133.703125 C 207.226562 134.84375 207.226562 135.941406 207.226562 136.921875 C 207.226562 137.042969 207.308594 137.125 207.429688 137.125 C 207.554688 137.125 207.636719 137.042969 207.675781 136.921875 C 207.839844 135.007812 208 132.765625 208.164062 130.445312 C 217.246094 129.917969 226.242188 128.492188 235.28125 127.433594 C 240.128906 127.066406 244.648438 125.03125 248.515625 122.140625 C 247.335938 123.808594 245.949219 125.355469 244.441406 126.742188 C 243.019531 128.085938 241.511719 129.304688 240.128906 130.691406 C 238.824219 131.992188 237.847656 133.582031 236.542969 134.882812 C 235.484375 135.984375 236.257812 137.980469 237.804688 137.980469 C 240.414062 138.101562 243.101562 138.140625 245.707031 137.855469 C 244.890625 138.304688 244.078125 138.628906 243.222656 138.914062 Z M 243.222656 138.914062 " fill-opacity="1" fill-rule="nonzero"/></g><path fill="#ffffff" d="M 185.484375 145.550781 C 188.253906 144.820312 190.941406 143.921875 193.507812 142.742188 C 190.125 143.761719 186.664062 144.535156 183.203125 145.105469 C 164.351562 147.75 145.214844 145.105469 126.648438 141.398438 C 144.566406 147.222656 167.121094 150.113281 185.484375 145.550781 Z M 185.484375 145.550781 " fill-opacity="1" fill-rule="nonzero"/><path fill="#ffffff" d="M 144.929688 149.011719 C 159.058594 153.613281 176.324219 153.941406 190.535156 149.421875 C 192.652344 148.769531 194.6875 147.914062 196.683594 147.019531 C 179.867188 151.902344 162.074219 151.863281 144.929688 149.011719 Z M 144.929688 149.011719 " fill-opacity="1" fill-rule="nonzero"/><path fill="#ffffff" d="M 198.390625 103.65625 C 195.910156 103.003906 193.425781 102.839844 190.902344 102.800781 C 188.375 102.800781 185.890625 102.960938 183.410156 103.65625 C 185.890625 104.304688 188.375 104.46875 190.902344 104.507812 C 193.425781 104.46875 195.949219 104.304688 198.390625 103.65625 Z M 198.390625 103.65625 " fill-opacity="1" fill-rule="nonzero"/><path fill="#ffffff" d="M 205.234375 106.097656 C 204.296875 106.339844 202.992188 106.179688 202.058594 106.179688 C 198.839844 106.136719 195.625 106.097656 192.449219 106.871094 C 195.5 108.050781 202.832031 108.5 205.234375 106.097656 Z M 205.234375 106.097656 " fill-opacity="1" fill-rule="nonzero"/><path fill="#ffffff" d="M 196.640625 111.226562 C 199.371094 112.367188 202.707031 112.367188 205.476562 111.226562 C 202.75 110.046875 199.410156 110.046875 196.640625 111.226562 Z M 196.640625 111.226562 " fill-opacity="1" fill-rule="nonzero"/><path fill="#ffffff" d="M 201.933594 114.769531 C 203.726562 115.707031 205.925781 115.503906 207.472656 114.160156 C 205.640625 113.183594 203.441406 113.425781 201.933594 114.769531 Z M 201.933594 114.769531 " fill-opacity="1" fill-rule="nonzero"/><path fill="#ffffff" d="M 186.992188 123.441406 C 187.113281 123.808594 187.195312 124.214844 187.316406 124.582031 C 187.5625 125.398438 187.847656 126.171875 188.132812 126.945312 C 186.910156 127.3125 185.730469 127.71875 184.589844 128.289062 C 185.972656 128.410156 187.316406 128.371094 188.660156 128.246094 C 189.148438 129.347656 189.679688 130.445312 190.332031 131.503906 C 190.289062 130.363281 190.125 129.222656 189.921875 128.125 C 190.453125 128.042969 191.023438 127.960938 191.550781 127.882812 C 192.527344 127.675781 193.507812 127.472656 194.441406 127.230469 C 194.890625 128.164062 195.421875 129.101562 196.03125 129.957031 C 195.988281 128.898438 195.828125 127.882812 195.625 126.863281 C 196.519531 126.578125 197.375 126.210938 198.230469 125.804688 C 197.253906 125.722656 196.316406 125.683594 195.339844 125.761719 C 195.136719 124.910156 194.851562 124.011719 194.566406 123.15625 C 194.441406 122.832031 194.320312 122.507812 194.199219 122.179688 C 195.09375 121.9375 195.949219 121.609375 196.804688 121.242188 C 195.785156 121.121094 194.769531 121.082031 193.792969 121.121094 C 193.179688 119.65625 192.488281 118.230469 191.550781 116.886719 C 191.632812 118.351562 191.878906 119.777344 192.203125 121.203125 C 191.226562 121.285156 190.207031 121.40625 189.230469 121.527344 C 188.824219 121.609375 188.417969 121.652344 188.007812 121.734375 C 187.398438 120.144531 186.707031 118.636719 185.8125 117.214844 C 185.890625 118.839844 186.136719 120.46875 186.503906 122.058594 C 184.957031 122.382812 183.410156 122.832031 181.902344 123.484375 C 183.695312 123.605469 185.363281 123.566406 186.992188 123.441406 Z M 189.597656 123.15625 C 190.65625 122.996094 191.675781 122.792969 192.734375 122.585938 C 192.855469 122.953125 192.976562 123.320312 193.097656 123.6875 C 193.34375 124.421875 193.628906 125.152344 193.914062 125.84375 C 193.058594 125.925781 192.203125 126.089844 191.347656 126.210938 C 190.777344 126.332031 190.207031 126.457031 189.679688 126.578125 C 189.476562 125.722656 189.230469 124.910156 188.988281 124.09375 C 188.90625 123.808594 188.824219 123.523438 188.703125 123.28125 C 188.988281 123.238281 189.273438 123.199219 189.597656 123.15625 Z M 189.597656 123.15625 " fill-opacity="1" fill-rule="nonzero"/><g fill="#ffffff" fill-opacity="1"><g transform="translate(37.523446, 228.660335)"><g><path d="M 53.90625 -65.109375 L 55.28125 -0.1875 L 36.1875 0.1875 L 35.625 -22.6875 L 21.03125 -21.765625 L 19.5625 -0.28125 L 1.84375 0.09375 L 4.6875 -67.3125 L 8.265625 -71.625 L 48.296875 -73.375 Z M 35.53125 -36.640625 L 35.078125 -54.90625 L 22.953125 -53.90625 L 22.03125 -37.5625 Z M 35.53125 -36.640625 "/></g></g></g><g fill="#ffffff" fill-opacity="1"><g transform="translate(94.639292, 228.660335)"><g><path d="M 46.28125 -52.984375 L 51.0625 -46.734375 L 50.78125 -30.21875 L 48.03125 -25.71875 L 33.609375 -25.984375 L 32.328125 -36.921875 L 21.765625 -37.46875 L 21.765625 -0.1875 L 2.578125 -1.1875 L 1.84375 -53.53125 L 13.3125 -53.4375 L 15.0625 -50.40625 L 17.265625 -52.890625 Z M 46.28125 -52.984375 "/></g></g></g><g fill="#ffffff" fill-opacity="1"><g transform="translate(147.531144, 228.660335)"><g><path d="M 46.28125 -52.984375 L 51.0625 -46.734375 L 50.78125 -30.21875 L 48.03125 -25.71875 L 33.609375 -25.984375 L 32.328125 -36.921875 L 21.765625 -37.46875 L 21.765625 -0.1875 L 2.578125 -1.1875 L 1.84375 -53.53125 L 13.3125 -53.4375 L 15.0625 -50.40625 L 17.265625 -52.890625 Z M 46.28125 -52.984375 "/></g></g></g><g fill="#ffffff" fill-opacity="1"><g transform="translate(200.422995, 228.660335)"><g><path d="M 53.71875 -49.953125 L 54.359375 0 L 41.78125 0.09375 L 39.859375 -3.125 L 37.734375 0 L 8.71875 -0.28125 L 1.84375 -5.328125 L 3.484375 -29.203125 L 8.8125 -32.875 L 34.53125 -33.328125 L 34.796875 -39.578125 L 21.765625 -40.5 L 20.203125 -37.09375 L 3.390625 -38.203125 L 2.484375 -44.8125 L 7.25 -52.890625 L 47.65625 -53.4375 Z M 35.171875 -14.328125 L 35.078125 -22.765625 L 21.390625 -22.59375 L 21.953125 -14.875 Z M 35.171875 -14.328125 "/></g></g></g><g fill="#ffffff" fill-opacity="1"><g transform="translate(256.620583, 228.660335)"><g><path d="M 1.84375 -0.1875 L 2.296875 -53.71875 L 22.21875 -53.71875 L 19.75 -1.109375 Z M 17.265625 -55.5625 L 7.25 -55.375 L 2.65625 -58.5 L 3.125 -73.375 L 20.484375 -73.375 L 22.765625 -70.890625 L 20.75 -58.40625 Z M 17.265625 -55.5625 "/></g></g></g><g fill="#ffffff" fill-opacity="1"><g transform="translate(281.229992, 228.660335)"><g><path d="M 42.796875 -68.875 L 30.671875 -57.03125 L 24.890625 -61.53125 L 34.34375 -76.125 Z M 53.71875 -49.953125 L 54.359375 -0.09375 L 41.78125 0 L 39.859375 -3.125 L 37.734375 -0.09375 L 8.71875 -0.28125 L 1.84375 -5.328125 L 3.484375 -29.296875 L 8.8125 -32.875 L 34.53125 -33.328125 L 34.796875 -39.671875 L 21.765625 -40.5 L 20.203125 -37.09375 L 3.390625 -38.203125 L 2.484375 -44.8125 L 7.25 -52.984375 L 47.65625 -53.53125 Z M 21.953125 -14.875 L 35.171875 -14.328125 L 35.078125 -22.765625 L 21.390625 -22.59375 Z M 21.953125 -14.875 "/></g></g></g><g fill="#ffffff" fill-opacity="1"><g transform="translate(48.884731, 264.212544)"><g><path d="M 23.109375 -34.296875 L 26.53125 -29.734375 L 25.765625 -4.609375 L 22.25 -0.453125 L 0.90625 0.046875 L 1.171875 -36.09375 Z M 10.421875 -27.34375 L 10.78125 -7.3125 L 17.0625 -8.703125 L 17.375 -25.359375 Z M 10.421875 -27.34375 "/></g></g></g><g fill="#ffffff" fill-opacity="1"><g transform="translate(76.310432, 264.212544)"><g><path d="M 24.234375 -36.09375 L 26.359375 -33.796875 L 26.03125 -3.296875 L 24.375 -0.09375 L 4.109375 0.046875 L 1.125 -1.71875 L 0.90625 -33.703125 L 2.34375 -35.96875 Z M 10.375 -28.515625 L 10.65625 -7.671875 L 16.734375 -7.265625 L 16.828125 -27.984375 Z M 10.375 -28.515625 "/></g></g></g><g fill="#ffffff" fill-opacity="1"><g transform="translate(103.555696, 264.212544)"><g><path d="M 24.234375 -20.84375 L 26.4375 -16.109375 L 26.125 -2.703125 L 23.28125 -0.1875 L 2.625 0 L 0.90625 -3.5625 L 1.765625 -12.3125 L 9.515625 -12.28125 L 10.15625 -8.265625 L 17.0625 -8.390625 L 17.28125 -14.078125 L 3.34375 -15.65625 L 1.3125 -17.953125 L 1.53125 -33.078125 L 3.296875 -35.203125 L 19.859375 -36.0625 L 25.671875 -34.390625 L 26.078125 -25.859375 L 24.40625 -24.40625 L 18.09375 -24.09375 L 16.96875 -27.75 L 10.96875 -27.25 L 10.46875 -22.0625 Z M 24.234375 -20.84375 "/></g></g></g><g fill="#ffffff" fill-opacity="1"><g transform="translate(130.891171, 264.212544)"><g/></g></g><g fill="#ffffff" fill-opacity="1"><g transform="translate(144.423593, 264.212544)"><g><path d="M 0.90625 -36.015625 L 26.265625 -36.015625 L 25.859375 -27.203125 L 18.6875 -26.890625 L 17.6875 -0.765625 L 8.265625 0.140625 L 8.484375 -26.9375 L 0.953125 -27.296875 Z M 0.90625 -36.015625 "/></g></g></g><g fill="#ffffff" fill-opacity="1"><g transform="translate(171.578629, 264.212544)"><g><path d="M 22.25 -8.171875 L 22.75 -0.09375 L 0.90625 -0.09375 L 0.90625 -36.1875 L 22.015625 -35.515625 L 21.75 -27.25 L 10.15625 -27.390625 L 10.15625 -22.875 L 17.640625 -22.421875 L 17.640625 -14.578125 L 10.109375 -15.03125 L 10.0625 -8.84375 Z M 22.25 -8.171875 "/></g></g></g><g fill="#ffffff" fill-opacity="1"><g transform="translate(195.215245, 264.212544)"><g><path d="M 1.171875 -35.609375 L 10.96875 -35.921875 L 9.75 -0.90625 L 0.90625 0.046875 Z M 1.171875 -35.609375 "/></g></g></g><g fill="#ffffff" fill-opacity="1"><g transform="translate(207.078667, 264.212544)"><g><path d="M 19.859375 -17.921875 L 27.296875 -4.421875 L 27.125 -2.578125 L 19.625 0.140625 L 14.296875 -8.578125 L 9.609375 0.21875 L 1.8125 -2.21875 L 0.90625 -4.015625 L 8.265625 -17.78125 L 1.078125 -29.015625 L 1.359375 -31.140625 L 8.4375 -36.015625 L 13.859375 -27.609375 L 18.59375 -35.921875 L 26.578125 -31.5 L 26.765625 -29.203125 Z M 19.859375 -17.921875 "/></g></g></g><g fill="#ffffff" fill-opacity="1"><g transform="translate(235.271198, 264.212544)"><g><path d="M 22.25 -8.171875 L 22.75 -0.09375 L 0.90625 -0.09375 L 0.90625 -36.1875 L 22.015625 -35.515625 L 21.75 -27.25 L 10.15625 -27.390625 L 10.15625 -22.875 L 17.640625 -22.421875 L 17.640625 -14.578125 L 10.109375 -15.03125 L 10.0625 -8.84375 Z M 22.25 -8.171875 "/></g></g></g><g fill="#ffffff" fill-opacity="1"><g transform="translate(258.907815, 264.212544)"><g><path d="M 1.171875 -35.609375 L 10.96875 -35.921875 L 9.75 -0.90625 L 0.90625 0.046875 Z M 1.171875 -35.609375 "/></g></g></g><g fill="#ffffff" fill-opacity="1"><g transform="translate(270.771237, 264.212544)"><g><path d="M 24.59375 -10.0625 L 22.25 -9.796875 L 25.40625 -3.34375 L 24.640625 -1.8125 L 17.6875 0 L 12.6875 -9.15625 L 10.46875 -9.0625 L 10.0625 -0.90625 L 0.90625 -0.140625 L 0.90625 -36.1875 L 24.546875 -34.75 L 26.3125 -32.984375 L 26.359375 -13.09375 Z M 16.828125 -17.640625 L 16.875 -27.75 L 10.921875 -28.34375 L 10.6875 -17.1875 Z M 16.828125 -17.640625 "/></g></g></g><g fill="#ffffff" fill-opacity="1"><g transform="translate(298.016501, 264.212544)"><g><path d="M 26.484375 -32 L 27.171875 -0.09375 L 17.78125 0.09375 L 17.515625 -11.140625 L 10.328125 -10.6875 L 9.609375 -0.140625 L 0.90625 0.046875 L 2.296875 -33.078125 L 4.0625 -35.203125 L 23.734375 -36.0625 Z M 17.46875 -18 L 17.234375 -26.984375 L 11.28125 -26.484375 L 10.828125 -18.453125 Z M 17.46875 -18 "/></g></g></g></svg>